<svg xmlns="http://www.w3.org/2000/svg" width="34.559" height="34.559" viewBox="0 0 34.559 34.559">
    <path id="prefix__Path_1770" d="M31.945 8.083h-5.76V5.614A4.114 4.114 0 0 0 22.071 1.5h-6.583a4.114 4.114 0 0 0-4.114 4.114v2.469h-5.76A4.114 4.114 0 0 0 1.5 12.2v19.745a4.114 4.114 0 0 0 4.114 4.114h16.457a.823.823 0 0 0 0-1.646H5.614a2.469 2.469 0 0 1-2.469-2.469v-9.873a4.164 4.164 0 0 0 2.469.823h2.469v2.469a.823.823 0 0 0 .823.823H12.2a.823.823 0 0 0 .823-.823v-2.469H24.54v2.469a.823.823 0 0 0 .823.823h3.291a.823.823 0 0 0 .823-.823v-2.469h2.469a4.164 4.164 0 0 0 2.469-.823v9.874a2.469 2.469 0 0 1-2.469 2.469h-6.584a.823.823 0 1 0 0 1.646h6.583a4.114 4.114 0 0 0 4.114-4.114V12.2a4.114 4.114 0 0 0-4.114-4.117zM13.02 5.614a2.469 2.469 0 0 1 2.469-2.469h6.583a2.469 2.469 0 0 1 2.468 2.469v2.469H13.02zM11.374 24.54H9.728V19.6h1.646zm16.457 0h-1.646V19.6h1.646zm4.114-3.291h-2.468V18.78a.823.823 0 0 0-.823-.823h-3.292a.823.823 0 0 0-.823.823v2.469H13.02V18.78a.823.823 0 0 0-.823-.823H8.906a.823.823 0 0 0-.823.823v2.469H5.614a2.469 2.469 0 0 1-2.468-2.469V12.2a2.469 2.469 0 0 1 2.468-2.472h26.331a2.469 2.469 0 0 1 2.469 2.472v6.58a2.469 2.469 0 0 1-2.469 2.468z" data-name="Path 1770" transform="translate(-1.5 -1.5)" style="fill:#fff"/>
</svg>
