<svg xmlns="http://www.w3.org/2000/svg" id="prefix__noun_cart_2416094" width="16.152" height="15.213" viewBox="0 0 16.152 15.213">
    <g id="prefix__Group_256" data-name="Group 256">
        <path id="prefix__Path_1739" d="M49.265 40.667a.405.405 0 0 0-.424-.242H37.155l-.484-1.393a.73.73 0 0 0-.3-.3l-2.422-.969a.609.609 0 0 0-.666.3.458.458 0 0 0 .3.666l2.18.908 2.664 7.75c-.121 0-.182.121-.242.242l-.785 2.12a.5.5 0 0 0 .061.424.432.432 0 0 0 .363.182h.424a1.418 1.418 0 0 0-.424 1.029 1.544 1.544 0 1 0 3.088 0 1.644 1.644 0 0 0-.363-1.029h3.391a1.718 1.718 0 0 0-.424 1.029 1.6 1.6 0 0 0 1.574 1.574 1.551 1.551 0 0 0 1.51-1.574 1.644 1.644 0 0 0-.363-1.029h1.756a.424.424 0 1 0 0-.848h-9.566l.484-1.332h7.811a.46.46 0 0 0 .484-.363l2.18-6.721a.576.576 0 0 0-.121-.424z" data-name="Path 1739" transform="translate(-33.234 -37.745)" style="fill:#00bfd6;fill-rule:evenodd"/>
    </g>
</svg>
