<svg xmlns="http://www.w3.org/2000/svg" width="35.652" height="33.108" viewBox="0 0 35.652 33.108">
    <defs>
        <style>
            .prefix__cls-1{fill:#fff;stroke:#fff;stroke-width:.3px}
        </style>
    </defs>
    <g id="prefix__Group_3356" data-name="Group 3356" transform="translate(.184 .15)">
        <path id="prefix__Path_1762" d="M17.078 396.369a1.394 1.394 0 0 1-.953-1.355v-9.746a.468.468 0 0 0-.409-.473.451.451 0 0 0-.5.452v9.767a1.3 1.3 0 1 1-2.6 0v-14.862a.459.459 0 0 0-.917 0v14.862a2.264 2.264 0 0 0 2.209 2.315 2.172 2.172 0 0 0 1.75-.91 2.215 2.215 0 0 0 1.164.826.459.459 0 0 0 .586-.437.445.445 0 0 0-.33-.439z" class="prefix__cls-1" data-name="Path 1762" transform="translate(-6.993 -364.52)"/>
        <path id="prefix__Path_1763" d="M-50.5 276.18a.456.456 0 0 0-.565.318l-1.6 5.674a.784.784 0 0 1-.416.5.659.659 0 0 1-.565 0 .862.862 0 0 1-.4-1.016l1.785-6.316a2.948 2.948 0 0 1 2.8-2.23h6.261a2.9 2.9 0 0 1 2.668 1.849.461.461 0 0 0 .543.268.459.459 0 0 0 .3-.621A3.862 3.862 0 0 0-43.2 272.2h-6.267a3.908 3.908 0 0 0-3.684 2.893l-1.785 6.323a1.759 1.759 0 0 0 .9 2.082 1.574 1.574 0 0 0 .67.148 1.614 1.614 0 0 0 .656-.141 1.706 1.706 0 0 0 .917-1.087l1.6-5.674a.458.458 0 0 0-.307-.564z" class="prefix__cls-1" data-name="Path 1763" transform="translate(55.002 -264.607)"/>
        <path id="prefix__Path_1764" d="M25.332 171.4A3.406 3.406 0 1 0 22.1 168a3.325 3.325 0 0 0 3.232 3.4zm0-5.9a2.5 2.5 0 1 1-2.322 2.491 2.42 2.42 0 0 1 2.322-2.491z" class="prefix__cls-1" data-name="Path 1764" transform="translate(-16.659 -164.6)"/>
        <path id="prefix__Path_1765" d="M242.859 281.509l-1.785-6.316a3.893 3.893 0 0 0-3.684-2.893h-6.26a3.862 3.862 0 0 0-3.507 2.406.459.459 0 0 0 .3.621.454.454 0 0 0 .543-.268 2.907 2.907 0 0 1 2.668-1.849h6.266a2.942 2.942 0 0 1 2.8 2.23l1.785 6.316a.874.874 0 0 1-.4 1.016.659.659 0 0 1-.565 0 .794.794 0 0 1-.423-.5l-1.6-5.674a.458.458 0 1 0-.882.247l1.6 5.674a1.686 1.686 0 0 0 .917 1.087 1.55 1.55 0 0 0 .656.141 1.6 1.6 0 0 0 .67-.148 1.767 1.767 0 0 0 .901-2.09z" class="prefix__cls-1" data-name="Path 1765" transform="translate(-207.644 -264.699)"/>
        <path id="prefix__Path_1766" d="M279.532 171.4a3.406 3.406 0 1 0-3.232-3.4 3.325 3.325 0 0 0 3.232 3.4zm0-5.9a2.5 2.5 0 1 1-2.322 2.5 2.42 2.42 0 0 1 2.322-2.5z" class="prefix__cls-1" data-name="Path 1766" transform="translate(-252.92 -164.6)"/>
        <path id="prefix__Path_1767" d="M273.608 355.938a.454.454 0 0 0-.882.219l2.583 10.466h-8.85a.452.452 0 1 0 0 .9h6.549v5.077a1.3 1.3 0 1 1-2.6 0v-3.592a.451.451 0 0 0-.5-.452.462.462 0 0 0-.409.473v3.571a1.388 1.388 0 0 1-.953 1.355.455.455 0 1 0 .247.875 2.188 2.188 0 0 0 1.164-.826 2.172 2.172 0 0 0 1.75.91 2.268 2.268 0 0 0 2.209-2.315v-5.074h1.969a.448.448 0 0 0 .36-.176.455.455 0 0 0 .085-.388z" class="prefix__cls-1" data-name="Path 1767" transform="translate(-243.347 -342.113)"/>
        <path id="prefix__Path_1768" d="M156.708 337.6a2.9 2.9 0 1 0-2.908-2.9 2.906 2.906 0 0 0 2.908 2.9zm0-4.891a1.99 1.99 0 1 1-2 1.99 2 2 0 0 1 2-1.989z" class="prefix__cls-1" data-name="Path 1768" transform="translate(-139.065 -320)"/>
        <path id="prefix__Path_1769" d="M74.352 396.447a1.428 1.428 0 0 0 .769-2.032 1.455 1.455 0 0 0-1.764-.649l-3.8 1.355a5.634 5.634 0 0 1-1.934.339.452.452 0 1 0 0 .9 6.689 6.689 0 0 0 2.237-.388l3.8-1.355a.539.539 0 0 1 .656.226.5.5 0 0 1 .028.438.527.527 0 0 1-.311.3l-3.218 1.15a3.019 3.019 0 0 0-1.8 1.75 12.976 12.976 0 0 0-.727 6.7l.48 3.077a.987.987 0 0 1-.226.8 1 1 0 0 1-.755.346.993.993 0 0 1-.981-.826l-.868-5.236a.458.458 0 0 0-.9 0l-.868 5.236a.987.987 0 0 1-.981.826 1 1 0 0 1-.755-.346.987.987 0 0 1-.226-.8l.48-3.077a12.992 12.992 0 0 0-.727-6.7v-.007a3.008 3.008 0 0 0-1.8-1.743l-3.218-1.15a.523.523 0 0 1-.282-.741.539.539 0 0 1 .656-.226l3.8 1.355a6.546 6.546 0 0 0 2.237.388.452.452 0 1 0 0-.9 5.634 5.634 0 0 1-1.934-.339l-3.8-1.355a1.455 1.455 0 0 0-1.764.649 1.428 1.428 0 0 0 .769 2.032l3.218 1.15a2.086 2.086 0 0 1 1.256 1.221v.007a12 12 0 0 1 .67 6.224l-.48 3.077a1.905 1.905 0 0 0 3.761.607l.416-2.526.416 2.526a1.906 1.906 0 0 0 3.324.924 1.915 1.915 0 0 0 .438-1.531l-.48-3.077a12.153 12.153 0 0 1 .67-6.224 2.086 2.086 0 0 1 1.256-1.221z" class="prefix__cls-1" data-name="Path 1769" transform="translate(-47.866 -377.512)"/>
    </g>
</svg>
