<svg xmlns="http://www.w3.org/2000/svg" width="17.063" height="14.565" viewBox="0 0 17.063 14.565">
    <g id="prefix__Group_3923" data-name="Group 3923" transform="translate(-921 -162)">
        <g id="prefix__noun_Love_1033573" transform="translate(921 162)">
            <path id="prefix__Path_1737" d="M-930.979 961.726a4.532 4.532 0 0 0-3.208-1.326 4.563 4.563 0 0 0-3.208 1.326l-.753.753-.753-.753a4.532 4.532 0 0 0-3.208-1.326 4.618 4.618 0 0 0-4.409 3.315 4.2 4.2 0 0 0 1.039 4.247l6.774 6.774a.747.747 0 0 0 1.075 0l6.613-6.613a4.479 4.479 0 0 0 .038-6.397z" data-name="Path 1737" transform="translate(946.716 -960.4)" style="fill:#404040"/>
        </g>
    </g>
</svg>
