<svg xmlns="http://www.w3.org/2000/svg" id="prefix__IGA_Store_Logo" width="100.394" height="35.599" viewBox="0 0 100.394 35.599">
    <defs>
        <style>
            .prefix__cls-1{fill:#fff}
        </style>
    </defs>
    <path id="prefix__Path_1725" d="M147.556 156.55v-11.08h-33.4v15.819z" class="prefix__cls-1" data-name="Path 1725" transform="translate(-114.16 -143.235)"/>
    <path id="prefix__Path_1726" d="M171.6 200.36l-.977 2.808h1.972l-.963-2.808z" class="prefix__cls-1" data-name="Path 1726" transform="translate(-144.97 -173.188)"/>
    <path id="prefix__Path_1727" d="M114.16 179.278V194.5h33.4v-19.96zM128.6 191.6a.1.1 0 0 1-.1.1h-.986a.1.1 0 0 1-.109-.1v-4.82c0-.064.041-.1.109-.1l.986-.141a.1.1 0 0 1 .1.1zm0-6.074c0 .064-.027.1-.1.109l-.986.141a.1.1 0 0 1-.109-.109v-1.087a.1.1 0 0 1 .109-.109h.986a.1.1 0 0 1 .1.109zm7.846 2.935a5.914 5.914 0 0 1-.173 1.586 2.781 2.781 0 0 1-5.174.032 10.231 10.231 0 0 1 0-3.98 2.513 2.513 0 0 1 2.6-1.745 2.564 2.564 0 0 1 2.54 1.531.12.12 0 0 1-.041.15l-.9.4a.1.1 0 0 1-.136-.055 1.561 1.561 0 0 0-1.467-.895 1.321 1.321 0 0 0-1.372.945 5.679 5.679 0 0 0-.127 1.658 5.883 5.883 0 0 0 .127 1.658 1.321 1.321 0 0 0 1.372.949 1.374 1.374 0 0 0 1.381-.9 2.91 2.91 0 0 0 .118-.936.056.056 0 0 0-.064-.064h-1.2a.1.1 0 0 1-.109-.109v-.85a.1.1 0 0 1 .109-.1h2.412a.1.1 0 0 1 .1.1v.631zm7.4 3.248h-1.056a.13.13 0 0 1-.141-.1l-.482-1.4h-2.744l-.482 1.4a.13.13 0 0 1-.141.1h-1.04c-.077 0-.1-.045-.077-.1l2.494-7.023a.146.146 0 0 1 .141-.109h.986a.13.13 0 0 1 .136.109l2.467 7.023c.027.059 0 .1-.068.1" class="prefix__cls-1" data-name="Path 1727" transform="translate(-114.16 -159.098)"/>
    <path id="prefix__Path_1728" d="M309.936 147.605l2.535-.368c.554-.064 3.307-.445 3.2-1.667-.245-1.177-2.994-.754-3.539-.659l-2.539.373-5.174-4.734-1.354.2 3.316 5-2.726.4a5.4 5.4 0 0 0-1.431.345l-1.749-1.9-1.013.15 1.4 3-.468 3.275 1.013-.15 1.127-2.317a5.452 5.452 0 0 0 1.472-.077l2.726-.4L305 153.82l1.354-.2z" class="prefix__cls-1" data-name="Path 1728" transform="translate(-215.278 -140.55)"/>
    <path id="prefix__Path_1729" d="M190.885 163.89v-1.617l46.511-6.433.227 1.586z" class="prefix__cls-1" data-name="Path 1729" transform="translate(-156.026 -148.894)"/>
    <g id="prefix__Group_250" data-name="Group 250" transform="translate(37.957 22.442)">
        <path id="prefix__Path_1730" d="M199.876 203.114a8.049 8.049 0 0 1-2.817-.5 7.68 7.68 0 0 1-2.49-1.536l1.345-1.6a7.876 7.876 0 0 0 1.872 1.227 5.134 5.134 0 0 0 2.144.427 2.768 2.768 0 0 0 1.645-.436 1.364 1.364 0 0 0 .609-1.163v-.033a1.5 1.5 0 0 0-.118-.609 1.292 1.292 0 0 0-.436-.5 3.377 3.377 0 0 0-.872-.436 12.224 12.224 0 0 0-1.445-.4 14.465 14.465 0 0 1-1.808-.536 4.89 4.89 0 0 1-1.327-.727 2.778 2.778 0 0 1-.818-1.045 3.6 3.6 0 0 1-.282-1.49v-.036a3.419 3.419 0 0 1 .327-1.5 3.471 3.471 0 0 1 .9-1.163 4.209 4.209 0 0 1 1.372-.754 5.362 5.362 0 0 1 1.744-.273 7.294 7.294 0 0 1 2.517.409 7.45 7.45 0 0 1 2.1 1.19l-1.2 1.69a7.831 7.831 0 0 0-1.726-.972 4.7 4.7 0 0 0-1.726-.336 2.385 2.385 0 0 0-1.526.436 1.328 1.328 0 0 0-.545 1.072v.036a1.528 1.528 0 0 0 .127.645 1.278 1.278 0 0 0 .463.509 3.881 3.881 0 0 0 .927.427c.4.132.9.273 1.5.418a14.117 14.117 0 0 1 1.772.563 4.461 4.461 0 0 1 1.281.754 2.951 2.951 0 0 1 .772 1.036 3.315 3.315 0 0 1 .263 1.372v.036a3.7 3.7 0 0 1-.336 1.6 3.41 3.41 0 0 1-.936 1.2 4.1 4.1 0 0 1-1.436.745 6.183 6.183 0 0 1-1.836.253z" class="prefix__cls-1" data-name="Path 1730" transform="translate(-194.57 -189.994)"/>
        <path id="prefix__Path_1731" d="M223.484 192.5h-4.034v-2.07h10.322v2.07h-4.034v10.65h-2.253V192.5z" class="prefix__cls-1" data-name="Path 1731" transform="translate(-208.147 -190.212)"/>
        <path id="prefix__Path_1732" d="M251.243 203.107a6.808 6.808 0 0 1-2.689-.518 6.349 6.349 0 0 1-2.09-1.408 6.458 6.458 0 0 1-1.364-2.081 6.6 6.6 0 0 1-.491-2.535v-.036a6.6 6.6 0 0 1 .491-2.535 6.375 6.375 0 0 1 1.381-2.09 6.622 6.622 0 0 1 2.108-1.426 6.731 6.731 0 0 1 2.689-.527 6.808 6.808 0 0 1 2.689.518 6.348 6.348 0 0 1 2.09 1.408 6.458 6.458 0 0 1 1.363 2.081 6.6 6.6 0 0 1 .491 2.535v.036a6.6 6.6 0 0 1-.491 2.535 6.375 6.375 0 0 1-1.381 2.09 6.628 6.628 0 0 1-4.8 1.953zm.036-2.035a4.189 4.189 0 0 0 1.735-.354 4.1 4.1 0 0 0 1.354-.968 4.507 4.507 0 0 0 .881-1.431 4.77 4.77 0 0 0 .318-1.754v-.036a4.853 4.853 0 0 0-.318-1.763 4.267 4.267 0 0 0-2.262-2.417 4.11 4.11 0 0 0-1.745-.363 4.189 4.189 0 0 0-1.735.354 4.1 4.1 0 0 0-1.354.968 4.506 4.506 0 0 0-.881 1.431 4.763 4.763 0 0 0-.318 1.749v.036a4.853 4.853 0 0 0 .318 1.763 4.267 4.267 0 0 0 2.262 2.417 4.073 4.073 0 0 0 1.745.367z" class="prefix__cls-1" data-name="Path 1732" transform="translate(-221.877 -189.95)"/>
        <path id="prefix__Path_1733" d="M279.85 190.43h5.67a6.252 6.252 0 0 1 2.126.336 4.267 4.267 0 0 1 1.545.936 3.657 3.657 0 0 1 .781 1.218 4.113 4.113 0 0 1 .273 1.526v.036a4.144 4.144 0 0 1-.227 1.408 3.636 3.636 0 0 1-.628 1.11 3.761 3.761 0 0 1-.954.818 4.789 4.789 0 0 1-1.227.518l3.434 4.816h-2.635l-3.126-4.434h-2.8v4.434h-2.232zm5.506 6.306a2.949 2.949 0 0 0 1.908-.572 1.891 1.891 0 0 0 .709-1.554v-.036a1.875 1.875 0 0 0-.691-1.572 3.094 3.094 0 0 0-1.944-.536h-3.253v4.27z" class="prefix__cls-1" data-name="Path 1733" transform="translate(-241.107 -190.212)"/>
        <path id="prefix__Path_1734" d="M308.77 190.43h9.43v2H311v3.307h6.378v2H311v3.416h7.287v2h-9.517V190.43z" class="prefix__cls-1" data-name="Path 1734" transform="translate(-256.889 -190.212)"/>
    </g>
</svg>
