<svg xmlns="http://www.w3.org/2000/svg" id="prefix__instagram" width="17.564" height="17.564" viewBox="0 0 17.564 17.564">
    <defs>
        <style>
            .prefix__cls-1{fill:#fff}
        </style>
    </defs>
    <path id="prefix__Path_1786" d="M14.992 0H2.573A2.576 2.576 0 0 0 0 2.573v12.419a2.576 2.576 0 0 0 2.573 2.573h12.419a2.576 2.576 0 0 0 2.573-2.573V2.573A2.576 2.576 0 0 0 14.992 0zM8.817 13.379a4.631 4.631 0 1 1 4.631-4.631 4.636 4.636 0 0 1-4.631 4.631zm5.146-8.233A1.544 1.544 0 1 1 15.506 3.6a1.546 1.546 0 0 1-1.544 1.546zm0 0" class="prefix__cls-1" data-name="Path 1786"/>
    <path id="prefix__Path_1787" d="M392.731 90a.731.731 0 1 0 .731.731.731.731 0 0 0-.731-.731zm0 0" class="prefix__cls-1" data-name="Path 1787" transform="translate(-378.769 -87.129)"/>
    <path id="prefix__Path_1788" d="M155.1 150a3.1 3.1 0 1 0 3.1 3.1 3.1 3.1 0 0 0-3.1-3.1zm0 0" class="prefix__cls-1" data-name="Path 1788" transform="translate(-146.282 -144.35)"/>
</svg>
