<svg xmlns="http://www.w3.org/2000/svg" id="prefix__noun_Love_1033573" width="17.822" height="15.213" viewBox="0 0 17.822 15.213">
    <path id="prefix__Path_1737" d="M-930.279 961.785a4.734 4.734 0 0 0-3.35-1.385 4.766 4.766 0 0 0-3.35 1.385l-.786.786-.786-.786a4.734 4.734 0 0 0-3.35-1.385 4.824 4.824 0 0 0-4.6 3.463 4.383 4.383 0 0 0 1.086 4.436l7.075 7.075a.78.78 0 0 0 1.123 0l6.907-6.907a4.678 4.678 0 0 0 .031-6.682z" data-name="Path 1737" transform="translate(946.716 -960.4)" style="fill:#00bfd6"/>
</svg>
