<svg xmlns="http://www.w3.org/2000/svg" width="16.409" height="10.666" viewBox="0 0 16.409 10.666">
    <g id="prefix__Group_3921" data-name="Group 3921" transform="translate(-675 -864)">
        <g id="prefix__Group_3390" data-name="Group 3390" transform="translate(665 -112.362)">
            <path id="prefix__Path_1790" d="M11.231 976.362a1.22 1.22 0 0 0-.654.192l7.025 6.134a.852.852 0 0 0 1.192 0l7.038-6.141a1.227 1.227 0 0 0-.654-.186zm-1.16.833a1.226 1.226 0 0 0-.071.4v8.2a1.228 1.228 0 0 0 1.231 1.231h13.947a1.228 1.228 0 0 0 1.231-1.231v-8.2a1.225 1.225 0 0 0-.071-.4l-7.006 6.115a1.72 1.72 0 0 1-2.269-.006z" data-name="Path 1790" style="fill:#404040"/>
        </g>
    </g>
</svg>
