<svg xmlns="http://www.w3.org/2000/svg" id="prefix__noun_cart_2416094" width="20.903" height="19.687" viewBox="0 0 20.903 19.687">
    <g id="prefix__Group_256" data-name="Group 256">
        <path id="prefix__Path_1739" d="M53.98 41.526a.525.525 0 0 0-.548-.313H38.308l-.627-1.8a.944.944 0 0 0-.392-.392l-3.134-1.254a.788.788 0 0 0-.862.392.592.592 0 0 0 .392.862l2.821 1.175 3.448 10.03c-.157 0-.235.157-.313.313l-1.019 2.741a.644.644 0 0 0 .078.549.558.558 0 0 0 .47.235h.548a1.835 1.835 0 0 0-.548 1.336 2 2 0 1 0 4 0 2.128 2.128 0 0 0-.47-1.332h4.388a2.223 2.223 0 0 0-.548 1.332 2.074 2.074 0 0 0 2.037 2.037 2.007 2.007 0 0 0 1.955-2.037 2.128 2.128 0 0 0-.47-1.332h2.272a.548.548 0 1 0 0-1.1h-12.38l.627-1.724h10.108a.6.6 0 0 0 .627-.47l2.821-8.7a.746.746 0 0 0-.157-.548z" data-name="Path 1739" transform="translate(-33.234 -37.745)" style="fill:#fff;fill-rule:evenodd"/>
    </g>
</svg>
