<svg xmlns="http://www.w3.org/2000/svg" width="20.138" height="17.189" viewBox="0 0 20.138 17.189">
    <g id="prefix__noun_Love_1033573">
        <path id="prefix__Path_1737" d="M-928.143 961.965a5.349 5.349 0 0 0-3.786-1.565 5.386 5.386 0 0 0-3.786 1.565l-.888.888-.888-.888a5.349 5.349 0 0 0-3.786-1.565 5.451 5.451 0 0 0-5.2 3.913 4.953 4.953 0 0 0 1.227 5.013l7.995 7.995a.881.881 0 0 0 1.269 0l7.8-7.8a5.286 5.286 0 0 0 .043-7.556z" data-name="Path 1737" transform="translate(946.716 -960.4)" style="fill:#fff"/>
    </g>
</svg>
