<svg xmlns="http://www.w3.org/2000/svg" width="14.624" height="18" viewBox="0 0 14.624 18">
    <path id="prefix__pinterest" d="M9.807 0C4.873 0 2.25 3.162 2.25 6.609c0 1.6.893 3.592 2.323 4.225.408.184.354-.04.7-1.383a.319.319 0 0 0-.073-.313c-2.043-2.365-.4-7.226 4.315-7.226 6.82 0 5.545 9.436 1.186 9.436a1.609 1.609 0 0 1-1.7-1.973 21.371 21.371 0 0 0 .949-3.634c0-2.361-3.517-2.011-3.517 1.117a3.784 3.784 0 0 0 .347 1.62L5.438 13.9a12.133 12.133 0 0 0 .083 3.988.119.119 0 0 0 .216.055A14.143 14.143 0 0 0 7.6 14.439c.139-.514.712-2.6.712-2.6a3.109 3.109 0 0 0 2.623 1.251c3.447 0 5.938-3.03 5.938-6.79C16.862 2.7 13.777 0 9.807 0z" transform="translate(-2.25)" style="fill:#fff"/>
</svg>
