<svg xmlns="http://www.w3.org/2000/svg" width="15.893" height="15.245" viewBox="0 0 15.893 15.245">
    <g id="prefix__PlayIcon" transform="translate(.407 .4)">
        <g id="prefix__favorite_icon">
            <g id="prefix__Group_265" data-name="Group 265">
                <path id="prefix__Path_378" d="M405.849 255.327a.93.93 0 0 1-.354-.072l-3.768-1.683a.036.036 0 0 0-.04 0l-3.768 1.683a.837.837 0 0 1-.853-.089.851.851 0 0 1-.346-.781l.435-4.1a.044.044 0 0 0-.016-.04l-2.762-3.059a.856.856 0 0 1 .459-1.409l4.034-.853c.016 0 .024-.008.032-.024l2.053-3.575a.852.852 0 0 1 .741-.427.852.852 0 0 1 .741.427l2.053 3.575c.008.016.016.024.032.024l4.034.853a.85.85 0 0 1 .636.572.839.839 0 0 1-.177.837l-2.762 3.059a.061.061 0 0 0-.016.04l.435 4.1a.851.851 0 0 1-.346.781.737.737 0 0 1-.477.161z" data-name="Path 378" transform="translate(-394.155 -240.9)" style="fill:none;stroke:#f4c10d;stroke-width:.8px"/>
            </g>
        </g>
    </g>
</svg>
