<svg xmlns="http://www.w3.org/2000/svg" width="19.79" height="18.976" viewBox="0 0 19.79 18.976">
    <g id="prefix__PlayIcon" transform="translate(.408 .4)">
        <g id="prefix__favorite_icon">
            <g id="prefix__Group_265" data-name="Group 265">
                <path id="prefix__Path_378" d="M408.87 259.055a1.17 1.17 0 0 1-.446-.091l-4.741-2.117a.046.046 0 0 0-.051 0l-4.741 2.117a1.053 1.053 0 0 1-1.074-.111 1.07 1.07 0 0 1-.435-.983l.547-5.157a.056.056 0 0 0-.02-.051l-3.475-3.85a1.077 1.077 0 0 1 .578-1.773l5.076-1.074c.02 0 .03-.01.041-.03l2.583-4.5a1.072 1.072 0 0 1 .932-.537 1.072 1.072 0 0 1 .932.537l2.583 4.5c.01.02.02.03.041.03l5.076 1.074a1.069 1.069 0 0 1 .8.719 1.056 1.056 0 0 1-.223 1.054l-3.475 3.85a.077.077 0 0 0-.02.051l.547 5.157a1.071 1.071 0 0 1-.436.983.928.928 0 0 1-.599.202z" data-name="Path 378" transform="translate(-394.155 -240.9)" style="fill:none;stroke:#f4c10d;stroke-width:.8px"/>
            </g>
        </g>
    </g>
</svg>
