<svg xmlns="http://www.w3.org/2000/svg" id="prefix__Group_3358" width="33.188" height="33.188" data-name="Group 3358" viewBox="0 0 33.188 33.188">
    <defs>
        <style>
            .prefix__cls-1{fill:#fff}
        </style>
    </defs>
    <path id="prefix__Path_1772" d="M29.074 8.528a1.891 1.891 0 0 0-2.611 0l-1.294 1.294a.551.551 0 1 0 .78.78l1.294-1.294a.748.748 0 0 1 1.051 0l1.295 1.292a.549.549 0 0 0 .393.166.567.567 0 0 0 .393-.16.551.551 0 0 0 0-.78z" class="prefix__cls-1" data-name="Path 1772" transform="translate(-11.175 -3.577)"/>
    <path id="prefix__Path_1773" d="M32.7 17.772l-1.167-.719V14.1a1.936 1.936 0 0 0-3.872 0v.559l-1.106-.68v-3.75a1.936 1.936 0 1 0-3.872 0v1.355l-1.106-.68c.006-1.173 0-1.936 0-2.058a13.2 13.2 0 0 0-1-5.222C20.029 2.373 18.508 0 16.594 0s-3.435 2.373-3.977 3.629a13.188 13.188 0 0 0-1 5.216c0 .122-.006.891 0 2.063l-1.106.68v-1.355a1.936 1.936 0 1 0-3.872 0v3.745l-1.106.68V14.1a1.936 1.936 0 0 0-3.872 0v2.948l-1.167.719a.926.926 0 0 0-.494.818v2.987a.925.925 0 0 0 .924.924.891.891 0 0 0 .243-.033l.155-.072c2.8-1.82 6.82-2.4 10.482-2.854a80.874 80.874 0 0 0 .725 8.513L9.768 29.5l-.116.083a.754.754 0 0 0-.249.564v2.268a.767.767 0 0 0 .769.769.73.73 0 0 0 .343-.083l6.079-2.069 6.079 2.068a.747.747 0 0 0 .343.083.783.783 0 0 0 .531-.21.752.752 0 0 0 .238-.559v-2.263a.754.754 0 0 0-.249-.564l-2.882-1.527a80.974 80.974 0 0 0 .725-8.524c3.656.459 7.677 1.034 10.482 2.854l.155.072a.891.891 0 0 0 .243.033.922.922 0 0 0 .647-.266.908.908 0 0 0 .282-.658v-2.986a.926.926 0 0 0-.488-.813zM28.763 14.1a.83.83 0 0 1 1.659 0v2.118l-1.659-1.128zm-4.978-3.872a.83.83 0 1 1 1.659 0v2.6l-1.66-1.128zm-16.041 0a.83.83 0 1 1 1.659 0V11.7l-1.659 1.127zM2.766 14.1a.83.83 0 0 1 1.659 0v.985l-1.659 1.133zm-1.66 7.123V18.69l10.509-6.483c.006 1.151.028 2.871.1 4.79.017.47.028.946.05 1.433-3.64.448-7.655 1.012-10.659 2.793zm21.572 10.715l-5.758-1.959a.778.778 0 0 0-.647 0l-5.764 1.958v-1.576l6.084-3.2 6.084 3.2zm-5.631-5.791a.765.765 0 0 0-.149-.077.8.8 0 0 0-.608-.006.522.522 0 0 0-.155.083L13.563 27.5c-.326-2.24-.531-5.2-.653-8.1h.017l-.028-.514-.05-1.106c-.1-3.042-.127-5.852-.127-7.478V8.845a12.117 12.117 0 0 1 .913-4.785c.614-1.427 1.864-2.954 2.959-2.954s2.345 1.527 2.959 2.959a12.125 12.125 0 0 1 .913 4.79c0 .028.006.531 0 1.372v.089c-.006 1.621-.028 4.419-.127 7.456l-.05 1.117-.006.4c-.122 2.937-.326 5.946-.658 8.214L17.136 26.2zm15.034-4.923c-3-1.781-7.008-2.34-10.653-2.8l.05-1.433c.066-1.919.094-3.634.1-4.79l10.509 6.483v2.539z" class="prefix__cls-1" data-name="Path 1773"/>
</svg>
