<svg xmlns="http://www.w3.org/2000/svg" width="23.576" height="34.851" viewBox="0 0 23.576 34.851">
    <defs>
        <style>
            .prefix__cls-1{fill:#fff}
        </style>
    </defs>
    <g id="prefix__noun_Backpack_1884398">
        <path id="prefix__Path_1759" d="M110.128 12.8v-.647a3.34 3.34 0 0 0-6.68 0v.656A9.956 9.956 0 0 0 95 22.632V40.32a3.391 3.391 0 0 0 3.415 3.359h16.82a3.314 3.314 0 0 0 3.34-3.359V22.632a9.907 9.907 0 0 0-8.447-9.832zm-5.37-.647a2.03 2.03 0 0 1 4.06 0v.547h-4.06zm12.508 28.167a2.018 2.018 0 0 1-2.031 2.049h-16.82a2.08 2.08 0 0 1-2.105-2.049V22.632a8.63 8.63 0 0 1 8.58-8.619h3.871a8.572 8.572 0 0 1 8.505 8.619z" class="prefix__cls-1" data-name="Path 1759" transform="translate(-95 -8.828)"/>
        <path id="prefix__Path_1760" d="M134 307.244v9.1a1.246 1.246 0 0 0 1.244 1.244h16.045a1.246 1.246 0 0 0 1.244-1.244v-9.1a1.246 1.246 0 0 0-1.244-1.244h-16.045a1.246 1.246 0 0 0-1.244 1.244zm1.31 9.038V309.6h13.425v1.113a.655.655 0 0 0 1.31 0V309.6h1.179v6.68zm15.914-8.972v.982H135.31v-.982z" class="prefix__cls-1" data-name="Path 1760" transform="translate(-131.446 -286.539)"/>
        <path id="prefix__Path_1761" d="M226.655 145.257h5.108a.655.655 0 0 0 .655-.655v-2.947a.655.655 0 0 0-.655-.655h-5.108a.655.655 0 0 0-.655.655v2.945a.655.655 0 0 0 .655.657zm.655-2.947h3.8v1.637h-3.8z" class="prefix__cls-1" data-name="Path 1761" transform="translate(-217.421 -132.344)"/>
    </g>
</svg>
