<svg xmlns="http://www.w3.org/2000/svg" width="21.618" height="17.564" viewBox="0 0 21.618 17.564">
    <path id="prefix__twitter" d="M19.4 6.63a8.847 8.847 0 0 0 2.221-2.3 9.256 9.256 0 0 1-2.554.7 4.408 4.408 0 0 0 1.95-2.449A8.867 8.867 0 0 1 18.2 3.652a4.432 4.432 0 0 0-7.666 3.03 4.563 4.563 0 0 0 .1 1.011 12.547 12.547 0 0 1-9.129-4.636A4.432 4.432 0 0 0 2.867 8.98a4.381 4.381 0 0 1-2-.546v.049a4.453 4.453 0 0 0 3.551 4.355 4.407 4.407 0 0 1-1.162.146 3.912 3.912 0 0 1-.839-.076A4.476 4.476 0 0 0 6.556 16a8.909 8.909 0 0 1-5.5 1.89A8.382 8.382 0 0 1 0 17.826a12.481 12.481 0 0 0 6.8 1.989A12.528 12.528 0 0 0 19.4 6.63z" transform="translate(0 -2.25)" style="fill:#fff"/>
</svg>
