<svg xmlns="http://www.w3.org/2000/svg" width="21.396" height="12.565" viewBox="0 0 21.396 12.565">
    <defs>
        <style>
            .prefix__cls-1{fill:#404040}
        </style>
    </defs>
    <g id="prefix__Group_3922" data-name="Group 3922" transform="translate(-849 -163)">
        <g id="prefix__Group" transform="translate(845.679 140.4)">
            <path id="prefix__Compound_Path" d="M21.522 25.535a12.492 12.492 0 0 0-7.5-2.935c-5.8 0-10.364 5.618-10.547 5.847a.688.688 0 0 0 0 .871 19.512 19.512 0 0 0 3.05 2.912 12.492 12.492 0 0 0 7.5 2.935c5.8 0 10.364-5.618 10.547-5.87a.688.688 0 0 0 0-.848 19.535 19.535 0 0 0-3.05-2.912zm-7.5 8.025a4.677 4.677 0 1 1 4.678-4.678 4.677 4.677 0 0 1-4.677 4.677z" class="prefix__cls-1" data-name="Compound Path"/>
            <path id="prefix__Path" d="M41.445 38.9a2.545 2.545 0 1 0 2.545 2.545 2.545 2.545 0 0 0-2.545-2.545z" class="prefix__cls-1" transform="translate(-27.421 -12.563)"/>
        </g>
    </g>
</svg>
