<svg xmlns="http://www.w3.org/2000/svg" width="26.348" height="18.448" viewBox="0 0 26.348 18.448">
    <path id="prefix__youtube" d="M25.805-3.2a3.3 3.3 0 0 0-2.322-2.322c-2.062-.564-10.309-.564-10.309-.564s-8.247 0-10.309.543A3.368 3.368 0 0 0 .543-3.2 34.781 34.781 0 0 0 0 3.142a34.653 34.653 0 0 0 .543 6.337A3.3 3.3 0 0 0 2.865 11.8c2.083.564 10.309.564 10.309.564s8.247 0 10.309-.543A3.3 3.3 0 0 0 25.805 9.5a34.792 34.792 0 0 0 .542-6.337 33.016 33.016 0 0 0-.542-6.363zM10.548 7.092v-7.9l6.858 3.95zm0 0" transform="translate(0 6.082)" style="fill:#fff"/>
</svg>
